<mxfile host="app.diagrams.net" modified="2023-06-19T15:19:42.258Z" agent="Mozilla/5.0 (Macintosh; Intel Mac OS X 10_15_7) AppleWebKit/537.36 (KHTML, like Gecko) Chrome/114.0.0.0 Safari/537.36" etag="PIkrC1HYpvyk0s70EQc7" version="21.3.8" type="github">
  <diagram name="Page-1" id="bNEfJze7OScagQ9AP2V5">
    <mxGraphModel dx="1434" dy="816" grid="1" gridSize="10" guides="1" tooltips="1" connect="1" arrows="1" fold="1" page="1" pageScale="1" pageWidth="850" pageHeight="1100" math="0" shadow="0">
      <root>
        <mxCell id="0" />
        <mxCell id="1" parent="0" />
      </root>
    </mxGraphModel>
  </diagram>
</mxfile>
